<?xml version="1.0" encoding="UTF-8"?>
<svg width="800" height="600" viewBox="0 0 800 600" fill="none" xmlns="http://www.w3.org/2000/svg">
  <!-- Dashboard Background -->
  <rect width="800" height="600" rx="20" fill="#F5F7FA"/>
  
  <!-- Header -->
  <rect x="40" y="40" width="720" height="80" rx="10" fill="#FFFFFF"/>
  <rect x="60" y="60" width="200" height="40" rx="5" fill="#E2E8F0"/>
  <circle cx="720" cy="80" r="20" fill="#4F46E5"/>
  
  <!-- Main Content -->
  <rect x="40" y="140" width="350" height="200" rx="10" fill="#FFFFFF"/>
  <rect x="60" y="160" width="150" height="20" rx="5" fill="#E2E8F0"/>
  <rect x="60" y="190" width="310" height="130" rx="5" fill="#EDF2F7"/>
  
  <rect x="410" y="140" width="350" height="200" rx="10" fill="#FFFFFF"/>
  <rect x="430" y="160" width="150" height="20" rx="5" fill="#E2E8F0"/>
  <rect x="430" y="190" width="310" height="130" rx="5" fill="#EDF2F7"/>
  
  <!-- Bottom Cards -->
  <rect x="40" y="360" width="230" height="200" rx="10" fill="#FFFFFF"/>
  <rect x="60" y="380" width="100" height="20" rx="5" fill="#E2E8F0"/>
  <rect x="60" y="410" width="190" height="130" rx="5" fill="#EDF2F7"/>
  
  <rect x="290" y="360" width="230" height="200" rx="10" fill="#FFFFFF"/>
  <rect x="310" y="380" width="100" height="20" rx="5" fill="#E2E8F0"/>
  <rect x="310" y="410" width="190" height="130" rx="5" fill="#EDF2F7"/>
  
  <rect x="540" y="360" width="220" height="200" rx="10" fill="#FFFFFF"/>
  <rect x="560" y="380" width="100" height="20" rx="5" fill="#E2E8F0"/>
  <rect x="560" y="410" width="180" height="130" rx="5" fill="#EDF2F7"/>
  
  <!-- Decorative Elements -->
  <circle cx="720" cy="80" r="20" fill="#4F46E5"/>
  <circle cx="680" cy="80" r="20" fill="#6366F1"/>
  <circle cx="640" cy="80" r="20" fill="#818CF8"/>
</svg>
